<?xml version="1.0" encoding="utf-8"?>
<!-- Generator: Adobe Illustrator 26.0.3, SVG Export Plug-In . SVG Version: 6.00 Build 0)  -->
<svg version="1.1" id="Art" xmlns="http://www.w3.org/2000/svg" xmlns:xlink="http://www.w3.org/1999/xlink" x="0px" y="0px"
	 viewBox="0 0 219.1 162" style="enable-background:new 0 0 219.1 162;" xml:space="preserve">
<style type="text/css">
	.st0{fill:#043673;}
</style>
<path class="st0" d="M67.1,160.6l1.1-1.3c0.7,0.6,1.5,1,2.4,1c0.7,0,1.2-0.3,1.2-0.8l0,0c0-0.5-0.3-0.7-1.7-1
	c-1.6-0.4-2.7-0.9-2.7-2.5l0,0c0-1.4,1.2-2.5,2.6-2.5c0.1,0,0.2,0,0.2,0c1.1,0,2.2,0.4,3.1,1.1l-0.9,1.4c-0.6-0.5-1.4-0.8-2.1-0.8
	c-0.7,0-1,0.3-1,0.7l0,0c0,0.5,0.3,0.7,1.8,1.1c1.7,0.4,2.6,1,2.6,2.5l0,0c0,1.6-1.2,2.6-3,2.6C69.4,162,68.1,161.5,67.1,160.6z"/>
<path class="st0" d="M79.1,158.3v-4.7h1.8v4.6c0,1.3,0.7,2,1.8,2c1.1,0,1.8-0.7,1.8-2v-4.7h1.8v4.6c0,2.5-1.4,3.7-3.6,3.7
	C80.4,161.9,79.1,160.8,79.1,158.3z"/>
<path class="st0" d="M92,153.6h1.7l3.9,5.1v-5.1h1.8v8.2h-1.5l-4-5.2v5.2H92L92,153.6z"/>
<path class="st0" d="M105.3,153.6h3.8c0.9-0.1,1.7,0.2,2.4,0.8c0.5,0.5,0.7,1.2,0.7,1.9l0,0c0.1,1.1-0.7,2.2-1.8,2.6l2,2.9h-2.1
	l-1.8-2.6h-1.4v2.6h-1.8V153.6z M108.9,157.6c0.9,0,1.4-0.5,1.4-1.2l0,0c0-0.8-0.5-1.2-1.4-1.2h-1.8v2.4L108.9,157.6z"/>
<path class="st0" d="M117.4,157.8L117.4,157.8c0.1-2.4,2.2-4.3,4.6-4.2c2.2,0.1,4,1.9,4.2,4.2l0,0c-0.1,2.4-2.2,4.3-4.6,4.2
	C119.3,161.8,117.5,160,117.4,157.8z M124.2,157.8L124.2,157.8c0-1.4-1-2.5-2.4-2.6c0,0-0.1,0-0.1,0c-1.4,0-2.5,1.1-2.5,2.5
	c0,0,0,0.1,0,0.1l0,0c0,1.4,1,2.5,2.4,2.6c0,0,0,0,0.1,0C123.1,160.3,124.2,159.2,124.2,157.8C124.2,157.8,124.2,157.8,124.2,157.8
	L124.2,157.8z"/>
<path class="st0" d="M134,153.6h1.7l3.5,8.3h-1.9l-0.8-1.8h-3.5l-0.8,1.8h-1.8L134,153.6z M135.9,158.4l-1.1-2.6l-1.1,2.7
	L135.9,158.4z"/>
<path class="st0" d="M144.4,153.6h3.2c2.3-0.1,4.2,1.6,4.4,3.8c0,0.1,0,0.2,0,0.3l0,0c0,2.3-1.8,4.1-4.1,4.1c-0.1,0-0.2,0-0.3,0
	h-3.2V153.6z M146.2,155.3v5h1.4c1.3,0.1,2.4-0.9,2.5-2.2c0-0.1,0-0.2,0-0.2l0,0c0.1-1.3-0.9-2.4-2.2-2.5c-0.1,0-0.2,0-0.2,0
	L146.2,155.3z"/>
<rect x="0.7" y="157.1" class="st0" width="60.5" height="1"/>
<rect x="158" y="157.1" class="st0" width="60.6" height="1"/>
<path class="st0" d="M0,137.8l2.1-2.5c1.3,1.2,3,1.9,4.8,2c1.5,0,2.3-0.6,2.3-1.5v-0.1c0-0.9-0.5-1.4-3.2-2
	c-3.2-0.8-5.3-1.7-5.3-4.9l0,0c0-2.9,2.3-4.9,5.6-4.9c2.2-0.1,4.3,0.7,6,2l-1.8,2.7c-1.2-1-2.7-1.5-4.2-1.6c-1.3,0-2.1,0.6-2.1,1.4
	l0,0c0,1.1,0.7,1.4,3.5,2.1c3.3,0.9,5.1,2,5.1,4.8v0.1c0,3.2-2.4,5-5.9,5C4.3,140.4,1.9,139.4,0,137.8z"/>
<path class="st0" d="M25.6,123.9h3.3l6.9,16.2H32l-1.5-3.6h-6.8l-1.5,3.6h-3.6L25.6,123.9z M29.3,133.4l-2.1-5.2l-2.1,5.2H29.3z"/>
<path class="st0" d="M42.8,124.1H55v3.2h-8.7v3.4H54v3.2h-7.7v6.2h-3.5V124.1z"/>
<path class="st0" d="M62.5,124.1h12.1v3.1H66v3.3h7.6v3.1H66v3.4h8.7v3.1H62.5V124.1z"/>
<path class="st0" d="M93.9,124.1h3.5v6.4h6.5v-6.4h3.5v16.1H104v-6.4h-6.5v6.4h-3.5V124.1z"/>
<path class="st0" d="M121.5,123.9h3.3l6.9,16.2H128l-1.5-3.6h-6.8l-1.5,3.6h-3.6L121.5,123.9z M125.2,133.4l-2.1-5.2l-2.1,5.2H125.2
	z"/>
<path class="st0" d="M138.7,124.1h7.4c1.7-0.1,3.4,0.5,4.7,1.6c1,1,1.5,2.3,1.4,3.7l0,0c0.1,2.3-1.3,4.3-3.4,5l3.9,5.7h-4.2
	l-3.4-5.1h-2.8v5.1h-3.5L138.7,124.1z M145.9,131.9c1.7,0,2.7-0.9,2.7-2.3v-0.1c0-1.5-1.1-2.3-2.8-2.3h-3.5v4.6L145.9,131.9z"/>
<path class="st0" d="M159.9,124.1h7.5c1.5-0.1,3,0.4,4.2,1.4c0.7,0.7,1.1,1.7,1.1,2.7l0,0c0.1,1.5-0.8,2.9-2.1,3.6
	c1.9,0.7,3,1.8,3,3.9v0.1c0,2.9-2.4,4.4-6,4.4h-7.6L159.9,124.1z M169.2,128.8c0-1-0.8-1.6-2.3-1.6h-3.5v3.4h3.3
	C168.2,130.5,169.2,130,169.2,128.8L169.2,128.8z M167.5,133.5h-4.1v3.5h4.2c1.6,0,2.5-0.6,2.5-1.8l0,0
	C170.1,134.2,169.3,133.5,167.5,133.5L167.5,133.5z"/>
<path class="st0" d="M180.4,132.2L180.4,132.2c0-4.6,3.7-8.3,8.3-8.3c0.1,0,0.2,0,0.3,0c4.5-0.2,8.4,3.4,8.5,8c0,0.1,0,0.2,0,0.3
	v0.1c-0.2,4.7-4.1,8.4-8.8,8.3C184.2,140.2,180.6,136.6,180.4,132.2z M193.8,132.2L193.8,132.2c0.1-2.7-2-5-4.7-5
	c-0.1,0-0.1,0-0.2,0c-2.7,0-4.8,2.1-4.8,4.8c0,0.1,0,0.1,0,0.2v0.1c-0.1,2.7,2,5,4.7,5.1c0.1,0,0.1,0,0.2,0c2.7,0,4.8-2.1,4.8-4.8
	C193.8,132.3,193.8,132.2,193.8,132.2z"/>
<path class="st0" d="M205.2,124.1h7.4c1.7-0.1,3.4,0.5,4.7,1.6c0.9,1,1.4,2.3,1.4,3.7l0,0c0.1,2.3-1.3,4.3-3.4,5l3.9,5.7H215
	l-3.4-5.1h-2.8v5.1h-3.5V124.1z M212.3,131.9c1.7,0,2.7-0.9,2.7-2.3v-0.1c0-1.5-1.1-2.3-2.8-2.3h-3.5v4.6L212.3,131.9z"/>
<path class="st0" d="M154.9,44c-0.4-2.7-1-5.3-1.8-7.9l-0.1-0.3c-0.2-0.7-0.5-1.3-0.7-2l-0.3-0.7c-0.2-0.5-0.4-1-0.7-1.6l-0.4-0.8
	c-0.2-0.5-0.5-0.9-0.7-1.4c-0.4-0.7-0.8-1.4-1.2-2.1l-0.3-0.6c-0.3-0.5-0.6-1-0.9-1.4c-0.1-0.2-0.2-0.4-0.4-0.6s-0.4-0.6-0.6-0.8
	c0-0.1-0.1-0.1-0.1-0.2c-1.4-1.9-3-3.7-4.6-5.4c-0.7-0.7-1.8-0.7-2.4,0c-0.1,0.1-0.2,0.2-0.2,0.3l-4.1,6.8c-0.4,0.7-0.4,1.6,0.2,2.2
	c3.9,4.4,6.7,9.8,7.9,15.6c0,0.9-0.7,1.6-1.5,1.7c0,0,0,0-0.1,0h-16.5c-0.6,0-1.2-0.4-1.5-1c-2.8-6.1-9.2-9.7-15.9-9
	c-0.6,0.1-1.3-0.2-1.6-0.8L97.8,20c-0.4-0.7-0.2-1.7,0.5-2.2c0.3-0.2,0.7-0.3,1-0.4c0.4-0.1,0.8-0.2,1.1-0.3c2.4-0.6,4.8-1,7.2-1.1
	c0.6,0,1.2-0.1,1.9-0.1c7.5-0.1,14.9,2.4,20.8,7c0.7,0.6,1.7,0.5,2.3-0.2c0-0.1,0.1-0.1,0.1-0.2l4.1-6.9c0.4-0.7,0.2-1.6-0.4-2.1
	h-0.1c0-0.1-0.1-0.1-0.2-0.2c-0.3-0.2-0.6-0.4-0.9-0.6l-0.3-0.2c-5.6-3.8-12.1-6.3-18.8-7.2c-3.8-0.3-3.6-5.2-6.7-5.2
	s-2.9,4.8-6.7,5.2c-3.1,0.4-6.1,1.2-9.1,2.3l-0.2,0.1c-0.5,0.2-1,0.4-1.5,0.6l-0.1,0c-0.5,0.2-1.1,0.5-1.6,0.7L90.2,9
	c-0.5,0.2-1,0.5-1.6,0.8l-0.2,0.1c-0.5,0.3-1.1,0.6-1.6,0.9c-0.2,0.1-0.7,0.4-0.7,0.4c-3.9,2.6-3.2,5.9-1.6,8.6l0.5,0.8l7.6,12.6
	l4,6.7c0.3,0.5,0.3,1.2-0.1,1.8c-0.5,0.7-0.9,1.5-1.3,2.3c-0.2,0.6-0.8,1-1.5,1H77.4c-0.9,0-1.6-0.7-1.6-1.6c0,0,0,0,0-0.1
	c1.3-5.8,4-11.2,7.9-15.6c0.5-0.6,0.6-1.4,0.2-2l-4.2-7c-0.5-0.8-1.5-1-2.2-0.6c-0.1,0.1-0.2,0.1-0.3,0.2c-1.7,1.7-3.2,3.5-4.6,5.4
	l-0.1,0.2c-0.2,0.3-0.4,0.5-0.6,0.8l-0.4,0.6c-0.3,0.5-0.6,0.9-0.9,1.4c-0.1,0.2-0.3,0.4-0.4,0.7c-0.3,0.5-0.6,1-0.9,1.6
	s-0.7,1.2-0.9,1.9c-0.1,0.3-0.2,0.5-0.4,0.8c-0.2,0.5-0.5,1-0.7,1.6l-0.3,0.7c-0.3,0.7-0.5,1.3-0.7,2c0,0.1-0.1,0.2-0.1,0.3
	c-0.9,2.5-1.5,5.1-1.9,7.8c-0.5,3.6-5.2,3.4-5.2,6.5s4.6,2.9,5.2,6.4c0.5,3.6,1.4,7.1,2.8,10.5c0,0.1,0.1,0.1,0.1,0.2
	c0.3,0.8,0.6,1.6,1,2.3l0.1,0.1c0.4,0.8,0.8,1.6,1.2,2.4l0.1,0.2c0.4,0.7,0.8,1.3,1.2,2c0.1,0.2,0.3,0.5,0.4,0.7
	c0.3,0.5,0.7,1,1,1.5l0.2,0.4l0.1,0.1c1.4,1.9,2.9,3.7,4.6,5.4c0.6,0.6,1.7,0.6,2.3,0c0.1-0.1,0.2-0.2,0.2-0.3l4.2-7.1
	c0.4-0.6,0.3-1.4-0.2-2c-3.9-4.4-6.5-9.8-7.8-15.6c-0.1-0.9,0.6-1.7,1.5-1.7c0,0,0.1,0,0.1,0h16.5c0.6,0,1.2,0.4,1.5,1
	c2.8,6.1,9.2,9.7,15.9,9c0.6-0.1,1.3,0.2,1.6,0.8l8.5,14.2c0.3,0.5,0.3,1.1,0,1.7c-0.2,0.3-0.5,0.6-0.9,0.7
	c-3.5,1.2-7.2,1.8-10.9,1.8c-7.6,0.1-15-2.5-21-7.2c-0.7-0.6-1.8-0.5-2.3,0.3c0,0.1-0.1,0.1-0.1,0.2L82,85.3
	c-0.4,0.7-0.2,1.6,0.4,2.1l0.4,0.3l0.1,0.1l0.3,0.2c0.5,0.3,0.9,0.7,1.4,0.9l0.9,0.6c0.5,0.3,1,0.6,1.6,0.9l0.6,0.4
	c0.7,0.4,1.4,0.8,2.1,1.1l0.9,0.4c0.5,0.2,0.9,0.4,1.4,0.6l1,0.4c0.4,0.2,0.9,0.3,1.3,0.5l1,0.4c0.5,0.2,1,0.3,1.5,0.4l0.9,0.2
	c0.7,0.2,1.4,0.4,2.1,0.5l0.3,0.1c0.9,0.2,1.7,0.3,2.6,0.4h0.1c3.8,0.3,3.6,5.2,6.7,5.2s2.9-4.8,6.7-5.2h0.1l1-0.2l1.2-0.2l0.6-0.1
	c0.6-0.1,1.2-0.3,1.8-0.4l0,0c2.9-0.7,5.7-1.7,8.4-3c0,0,1.9-0.9,2.8-1.5c4.7-2.7,4-6.2,2.3-9.1l-0.1-0.2l-2.5-4.1l-9.5-15.8
	c-0.3-0.5-0.3-1.2,0-1.8c0.5-0.7,0.9-1.5,1.3-2.3c0.2-0.6,0.8-1,1.5-1h16.5c0.9-0.1,1.7,0.5,1.8,1.4c0,0.1,0,0.2,0,0.2
	c-1.2,5.7-3.9,11.1-7.8,15.5c-0.5,0.6-0.6,1.5-0.2,2.2l4.1,6.9c0.5,0.8,1.5,1,2.2,0.6c0.1-0.1,0.2-0.2,0.3-0.3
	c1.7-1.7,3.3-3.5,4.7-5.5l0.1-0.1l0.4-0.5c0.2-0.3,0.4-0.5,0.6-0.8c0.3-0.4,0.5-0.8,0.8-1.3c0.4-0.6,0.8-1.3,1.1-1.9l0.1-0.2
	c0.4-0.8,0.8-1.6,1.2-2.4l0.1-0.1c0.4-0.8,0.7-1.5,1-2.3v-0.1c0.3-0.8,0.6-1.7,0.9-2.5c0.9-2.6,1.5-5.3,1.9-8.1
	c0.6-3.5,5.1-3.4,5.1-6.4S155.4,47.6,154.9,44z M115.2,58.2l-5.6-4.1l-5.6,4.1l2.1-6.6l-5.6-4.1h6.9l2.1-6.6l2.1,6.6h6.9l-5.6,4.1
	L115.2,58.2z"/>
</svg>
