<svg xmlns="http://www.w3.org/2000/svg" viewBox="0 0 146 145.59"><defs><style>.cls-1{fill:none}.cls-2{clip-path:url(#clip-path)}.cls-3{fill:#002b54}.cls-4{fill:#c41230}</style><clipPath id="clip-path"><path class="cls-1" d="M0 0h146v145.59H0z"/></clipPath></defs><title>LOGO_US Sailing</title><g id="Layer_2" data-name="Layer 2"><g id="Layer_1-2" data-name="Layer 1"><g class="cls-2"><path class="cls-3" d="M4.78 138.49c1.18 2.5 4.16 3.27 7 3.27 1.27 0 5.25-.21 5.25-2.74 0-1.51-1.45-1.86-2.57-2.07-.85-.18-5.13-.82-6.1-1-1.92-.36-6.76-1.27-6.76-6a5.71 5.71 0 0 1 .83-3c1.74-2.8 5.57-3.54 8.88-3.54a15 15 0 0 1 7.52 1.62 8.62 8.62 0 0 1 3.45 3.37l-5 1.23a3.86 3.86 0 0 0-1.79-1.63 10.37 10.37 0 0 0-4.19-.79c-2.3 0-4.66.44-4.66 2.41 0 1.36 1.2 1.72 2.77 2.07.85.18 5.1.88 6.08 1.09 2.41.45 6.51 1.33 6.51 5.9 0 6.7-8 6.93-10.59 6.93C8 145.59 2.71 145 0 139.72zM36.75 130.52a4.58 4.58 0 0 1-.35-.83 3.62 3.62 0 0 1-.18-.82c-.09.26-.15.5-.21.73s-.2.54-.32.8l-3.16 6.93h7.32zm-3.3-6.4h5.63l10.06 20.82H43.3L41.53 141H30.85l-1.77 3.92h-5.69z"/></g><path class="cls-3" d="M51.62 124.12h5.22v20.82h-5.22zM62.68 124.12v20.82h16.78v-3.83H67.9v-16.99h-5.22zM82.5 124.12h5.22v20.82H82.5z"/><g class="cls-2"><path class="cls-3" d="M93.53 124.12h5.19l10.21 11.59c1.24 1.45 1.47 1.74 2.77 3.36-.18-2-.18-2.5-.21-4.3v-10.65h5v20.82h-5.16L101 133.2a68.647 68.647 0 0 1-2.68-3.27 35 35 0 0 1 .18 3.54v11.47h-5zM142 142.55a12.16 12.16 0 0 1-8.61 3c-9.85 0-12.57-6.13-12.57-11.12a10.78 10.78 0 0 1 2.83-7.34c3.45-3.69 8.85-3.69 10.48-3.69a15.87 15.87 0 0 1 8.17 2 10.06 10.06 0 0 1 3.69 4l-5.76.8c-.85-1-2.36-2.87-6.31-2.87-4.45 0-7.73 2.6-7.73 7.23 0 4.07 2.8 7.26 7.88 7.26a9.53 9.53 0 0 0 5.84-1.83 4.77 4.77 0 0 0 1.71-2.39h-6.84v-3.75H146V145h-4zM0 66.43h12.25v28.86c0 4.38.9 8.06 5.56 10.29 4 1.88 7.51 1.74 11.13 1.6 4.66-.42 7.65-1.67 9.6-3.9 1.18-1.39 2.22-3 2.08-7.92V66.43h12.24v28.51c-.07 5.21-.07 10.15-4.24 14.74-5.08 5.64-14.54 7.51-22 7.51A43.23 43.23 0 0 1 16.28 116a26.07 26.07 0 0 1-8.48-3.54C.08 107.25 0 100.78 0 94.94zM69.27 100.3c2.78 5.91 9.81 7.72 16.49 7.72 3 0 12.37-.49 12.37-6.47 0-3.55-3.4-4.38-6-4.87-2-.42-12.1-2-14.4-2.37-4.52-.83-15.93-3-15.93-14.11a13.47 13.47 0 0 1 2-7c4.1-6.6 13.14-8.34 20.93-8.34 7.17 0 12.66 1 17.74 3.82a20.4 20.4 0 0 1 8.13 7.93l-11.77 2.96a9.19 9.19 0 0 0-4.31-4c-3.27-1.59-7.51-1.87-9.88-1.87-5.42 0-11 1-11 5.7 0 3.2 2.85 4 6.53 4.87 2 .42 12 2.09 14.33 2.57 5.7 1 15.37 3.13 15.37 13.91 0 15.79-18.78 16.35-25 16.35-8.07 0-20.51-1.4-26.84-13.84z"/><path class="cls-3" d="M146 117.16v-104C146 6 140.75.26 134.18 0h-2.49l-26.51 57.78 27.34-54.94.14.83c2.25 13.56 5.62 28.62 5.62 43-.14 27-9.79 50.41-29.19 68.28v2.28H146z"/></g><path class="cls-4" d="M0 21.99v13.59h74.2l20.07-13.59H0zM.01 44.18v13.6h41.5l20.09-13.6H.01z"/><g class="cls-2"><path class="cls-4" d="M18.94 0H12.3C5.51 0 0 5.88 0 13.13v.33h106.2L126.08 0z"/><path class="cls-3" d="M144.21 121.07h.16c.19 0 .35-.07.35-.22s-.1-.23-.32-.23h-.19zm0 .84h-.35v-1.5a3.78 3.78 0 0 1 .58 0 .82.82 0 0 1 .51.12.37.37 0 0 1 .16.32.4.4 0 0 1-.32.36c.15 0 .22.16.27.36a1.52 1.52 0 0 0 .11.37h-.37a1.56 1.56 0 0 1-.12-.37c0-.15-.11-.23-.31-.23h-.16zm-.93-.78a1.17 1.17 0 0 0 1.18 1.2 1.15 1.15 0 0 0 1.14-1.19 1.16 1.16 0 1 0-2.32 0m2.71 0a1.55 1.55 0 1 1-1.53-1.5 1.52 1.52 0 0 1 1.53 1.5"/></g></g></g></svg>